# xmcd
#
# Track frame offsets:
#	150
#	10900
#	21967
#	31807
#	42850
#	56922
#	69071
#	80095
#
# Disc length: 1240 seconds
#
# Revision: 2
# Processed by: cddbd v1.5.2PL0 Copyright (c) Steve Scherf et al.
# Submitted via: audiograbber 1.83.01
#
DISCID=5d04d608
DTITLE=Dalida - Eux
DYEAR=1963
DGENRE=Variété Française
TTITLE0=Eux
TTITLE1=Quand Revient L'ete
TTITLE2=Que La Vie Etait Jolie
TTITLE3=Ah Quelle Merveille
TTITLE4=Sois Heureux
TTITLE5=Le Jour Du Retour
TTITLE6=Loop De Loop
TTITLE7=Chez Moi
EXTD=YEAR: 1963
EXTT0=
EXTT1=
EXTT2=
EXTT3=
EXTT4=
EXTT5=
EXTT6=
EXTT7=
PLAYORDER=
